<mxfile host="65bd71144e">
    <diagram id="QieJ7JQiSWg6usme5NY2" name="第 1 页">
        <mxGraphModel grid="1" gridSize="10" guides="1" tooltips="1" connect="1" arrows="1" page="1" fold="1" pageScale="1" pageWidth="3300" pageHeight="4681" math="0" shadow="0">
            <root>
                <mxCell id="0"/>
                <mxCell id="1" parent="0"/>
                <mxCell id="2" value="" style="endArrow=none;dashed=1;html=1;" parent="1" edge="1">
                    <mxGeometry width="50" height="50" relative="1" as="geometry">
                        <mxPoint x="470" y="320" as="sourcePoint"/>
                        <mxPoint x="470" y="320" as="targetPoint"/>
                    </mxGeometry>
                </mxCell>
                <mxCell id="4" value="" style="rounded=0;whiteSpace=wrap;html=1;" parent="1" vertex="1">
                    <mxGeometry x="40" y="40" width="120" height="60" as="geometry"/>
                </mxCell>
                <mxCell id="5" value="" style="rounded=0;whiteSpace=wrap;html=1;" parent="1" vertex="1">
                    <mxGeometry x="40" y="150" width="120" height="60" as="geometry"/>
                </mxCell>
                <mxCell id="6" value="" style="rounded=0;whiteSpace=wrap;html=1;" parent="1" vertex="1">
                    <mxGeometry x="40" y="260" width="120" height="60" as="geometry"/>
                </mxCell>
                <mxCell id="7" value="" style="rounded=0;whiteSpace=wrap;html=1;" parent="1" vertex="1">
                    <mxGeometry x="40" y="380" width="120" height="60" as="geometry"/>
                </mxCell>
                <mxCell id="8" value="" style="shape=flexArrow;endArrow=classic;html=1;" parent="1" edge="1">
                    <mxGeometry width="50" height="50" relative="1" as="geometry">
                        <mxPoint x="100" y="110" as="sourcePoint"/>
                        <mxPoint x="100" y="150" as="targetPoint"/>
                    </mxGeometry>
                </mxCell>
                <mxCell id="9" value="" style="shape=flexArrow;endArrow=classic;html=1;" parent="1" edge="1">
                    <mxGeometry width="50" height="50" relative="1" as="geometry">
                        <mxPoint x="90" y="220" as="sourcePoint"/>
                        <mxPoint x="90" y="260" as="targetPoint"/>
                    </mxGeometry>
                </mxCell>
                <mxCell id="10" value="" style="shape=flexArrow;endArrow=classic;html=1;" edge="1" parent="1">
                    <mxGeometry width="50" height="50" relative="1" as="geometry">
                        <mxPoint x="99.5" y="330" as="sourcePoint"/>
                        <mxPoint x="99.5" y="370" as="targetPoint"/>
                    </mxGeometry>
                </mxCell>
                <mxCell id="11" value="" style="endArrow=none;dashed=1;html=1;" edge="1" parent="1">
                    <mxGeometry width="50" height="50" relative="1" as="geometry">
                        <mxPoint x="20" y="510" as="sourcePoint"/>
                        <mxPoint x="190" y="10" as="targetPoint"/>
                        <Array as="points">
                            <mxPoint x="20" y="10"/>
                        </Array>
                    </mxGeometry>
                </mxCell>
                <mxCell id="12" value="" style="endArrow=none;dashed=1;html=1;" edge="1" parent="1">
                    <mxGeometry width="50" height="50" relative="1" as="geometry">
                        <mxPoint x="30" y="510" as="sourcePoint"/>
                        <mxPoint x="190" y="510" as="targetPoint"/>
                    </mxGeometry>
                </mxCell>
                <mxCell id="13" value="" style="endArrow=none;dashed=1;html=1;" edge="1" parent="1">
                    <mxGeometry width="50" height="50" relative="1" as="geometry">
                        <mxPoint x="190" y="510" as="sourcePoint"/>
                        <mxPoint x="190" y="10" as="targetPoint"/>
                    </mxGeometry>
                </mxCell>
                <mxCell id="15" value="顺序" style="text;html=1;align=center;verticalAlign=middle;resizable=0;points=[];autosize=1;strokeColor=#A50040;fillColor=#d80073;fontColor=#ffffff;" vertex="1" parent="1">
                    <mxGeometry x="70" y="470" width="40" height="20" as="geometry"/>
                </mxCell>
                <mxCell id="16" value="" style="rounded=0;whiteSpace=wrap;html=1;" vertex="1" parent="1">
                    <mxGeometry x="240" y="40" width="160" height="60" as="geometry"/>
                </mxCell>
                <mxCell id="17" value="" style="endArrow=classic;html=1;" edge="1" parent="1">
                    <mxGeometry width="50" height="50" relative="1" as="geometry">
                        <mxPoint x="319.5" y="110" as="sourcePoint"/>
                        <mxPoint x="319.5" y="170" as="targetPoint"/>
                        <Array as="points">
                            <mxPoint x="319.5" y="110"/>
                        </Array>
                    </mxGeometry>
                </mxCell>
                <mxCell id="18" value="条件?" style="rhombus;whiteSpace=wrap;html=1;" vertex="1" parent="1">
                    <mxGeometry x="225" y="170" width="190" height="80" as="geometry"/>
                </mxCell>
                <mxCell id="19" value="" style="endArrow=classic;html=1;" edge="1" parent="1">
                    <mxGeometry width="50" height="50" relative="1" as="geometry">
                        <mxPoint x="319.5" y="260" as="sourcePoint"/>
                        <mxPoint x="319.5" y="320" as="targetPoint"/>
                        <Array as="points">
                            <mxPoint x="319.5" y="260"/>
                            <mxPoint x="319.5" y="270"/>
                        </Array>
                    </mxGeometry>
                </mxCell>
                <mxCell id="20" value="成立执行的代码" style="rounded=0;whiteSpace=wrap;html=1;" vertex="1" parent="1">
                    <mxGeometry x="250" y="320" width="150" height="60" as="geometry"/>
                </mxCell>
                <mxCell id="21" value="条件成立" style="text;html=1;align=center;verticalAlign=middle;resizable=0;points=[];autosize=1;strokeColor=#A50040;fillColor=#d80073;fontColor=#ffffff;" vertex="1" parent="1">
                    <mxGeometry x="330" y="270" width="60" height="20" as="geometry"/>
                </mxCell>
                <mxCell id="22" value="" style="endArrow=classic;html=1;" edge="1" parent="1">
                    <mxGeometry width="50" height="50" relative="1" as="geometry">
                        <mxPoint x="415" y="210" as="sourcePoint"/>
                        <mxPoint x="560" y="310" as="targetPoint"/>
                        <Array as="points">
                            <mxPoint x="560" y="210"/>
                        </Array>
                    </mxGeometry>
                </mxCell>
                <mxCell id="23" value="条件不成立" style="text;html=1;align=center;verticalAlign=middle;resizable=0;points=[];autosize=1;strokeColor=#A50040;fillColor=#d80073;fontColor=#ffffff;" vertex="1" parent="1">
                    <mxGeometry x="510" y="190" width="80" height="20" as="geometry"/>
                </mxCell>
                <mxCell id="24" value="不成立执行的代码" style="rounded=0;whiteSpace=wrap;html=1;" vertex="1" parent="1">
                    <mxGeometry x="450" y="320" width="170" height="60" as="geometry"/>
                </mxCell>
                <mxCell id="25" value="" style="endArrow=classic;html=1;" edge="1" parent="1">
                    <mxGeometry width="50" height="50" relative="1" as="geometry">
                        <mxPoint x="319.5" y="390" as="sourcePoint"/>
                        <mxPoint x="319.5" y="450" as="targetPoint"/>
                        <Array as="points">
                            <mxPoint x="319.5" y="390"/>
                            <mxPoint x="319.5" y="380"/>
                        </Array>
                    </mxGeometry>
                </mxCell>
                <mxCell id="27" value="" style="endArrow=none;html=1;" edge="1" parent="1">
                    <mxGeometry width="50" height="50" relative="1" as="geometry">
                        <mxPoint x="320" y="410" as="sourcePoint"/>
                        <mxPoint x="530" y="380" as="targetPoint"/>
                        <Array as="points">
                            <mxPoint x="530" y="410"/>
                        </Array>
                    </mxGeometry>
                </mxCell>
                <mxCell id="28" value="" style="rounded=0;whiteSpace=wrap;html=1;" vertex="1" parent="1">
                    <mxGeometry x="260" y="450" width="120" height="60" as="geometry"/>
                </mxCell>
                <mxCell id="29" value="" style="endArrow=none;dashed=1;html=1;dashPattern=1 3;strokeWidth=2;" edge="1" parent="1">
                    <mxGeometry width="50" height="50" relative="1" as="geometry">
                        <mxPoint x="230" y="530" as="sourcePoint"/>
                        <mxPoint x="650" y="10" as="targetPoint"/>
                        <Array as="points">
                            <mxPoint x="220" y="10"/>
                        </Array>
                    </mxGeometry>
                </mxCell>
                <mxCell id="30" value="" style="endArrow=none;dashed=1;html=1;dashPattern=1 3;strokeWidth=2;" edge="1" parent="1">
                    <mxGeometry width="50" height="50" relative="1" as="geometry">
                        <mxPoint x="650" y="20" as="sourcePoint"/>
                        <mxPoint x="240" y="530" as="targetPoint"/>
                        <Array as="points">
                            <mxPoint x="660" y="530"/>
                        </Array>
                    </mxGeometry>
                </mxCell>
                <mxCell id="31" value="分支" style="text;html=1;align=center;verticalAlign=middle;resizable=0;points=[];autosize=1;strokeColor=#A50040;fillColor=#d80073;fontColor=#ffffff;" vertex="1" parent="1">
                    <mxGeometry x="490" y="490" width="40" height="20" as="geometry"/>
                </mxCell>
                <mxCell id="32" value="" style="rounded=0;whiteSpace=wrap;html=1;" vertex="1" parent="1">
                    <mxGeometry x="880" y="40" width="120" height="60" as="geometry"/>
                </mxCell>
                <mxCell id="33" value="" style="endArrow=classic;html=1;exitX=0.417;exitY=1;exitDx=0;exitDy=0;exitPerimeter=0;" edge="1" parent="1" source="32">
                    <mxGeometry width="50" height="50" relative="1" as="geometry">
                        <mxPoint x="920" y="290" as="sourcePoint"/>
                        <mxPoint x="930" y="160" as="targetPoint"/>
                        <Array as="points">
                            <mxPoint x="930" y="140"/>
                        </Array>
                    </mxGeometry>
                </mxCell>
                <mxCell id="34" value="条件" style="rhombus;whiteSpace=wrap;html=1;" vertex="1" parent="1">
                    <mxGeometry x="850" y="160" width="150" height="80" as="geometry"/>
                </mxCell>
                <mxCell id="35" value="" style="endArrow=classic;html=1;" edge="1" parent="1">
                    <mxGeometry width="50" height="50" relative="1" as="geometry">
                        <mxPoint x="920" y="250" as="sourcePoint"/>
                        <mxPoint x="1050" y="360" as="targetPoint"/>
                        <Array as="points">
                            <mxPoint x="920" y="360"/>
                        </Array>
                    </mxGeometry>
                </mxCell>
                <mxCell id="36" value="循环执行的代码" style="rounded=0;whiteSpace=wrap;html=1;" vertex="1" parent="1">
                    <mxGeometry x="1060" y="330" width="120" height="60" as="geometry"/>
                </mxCell>
                <mxCell id="37" value="" style="endArrow=classic;html=1;" edge="1" parent="1">
                    <mxGeometry width="50" height="50" relative="1" as="geometry">
                        <mxPoint x="1110" y="330" as="sourcePoint"/>
                        <mxPoint x="1110" y="300" as="targetPoint"/>
                        <Array as="points"/>
                    </mxGeometry>
                </mxCell>
                <mxCell id="38" value="处理条件" style="rounded=0;whiteSpace=wrap;html=1;" vertex="1" parent="1">
                    <mxGeometry x="1050" y="260" width="120" height="30" as="geometry"/>
                </mxCell>
                <mxCell id="39" value="" style="endArrow=classic;html=1;" edge="1" parent="1" target="34">
                    <mxGeometry width="50" height="50" relative="1" as="geometry">
                        <mxPoint x="1120" y="250" as="sourcePoint"/>
                        <mxPoint x="1150" y="60" as="targetPoint"/>
                        <Array as="points">
                            <mxPoint x="1120" y="200"/>
                        </Array>
                    </mxGeometry>
                </mxCell>
                <mxCell id="40" value="条件成立" style="text;html=1;align=center;verticalAlign=middle;resizable=0;points=[];autosize=1;strokeColor=#A50040;fillColor=#d80073;fontColor=#ffffff;" vertex="1" parent="1">
                    <mxGeometry x="930" y="260" width="60" height="20" as="geometry"/>
                </mxCell>
                <mxCell id="42" value="" style="endArrow=classic;html=1;" edge="1" parent="1">
                    <mxGeometry width="50" height="50" relative="1" as="geometry">
                        <mxPoint x="880" y="220" as="sourcePoint"/>
                        <mxPoint x="850" y="410" as="targetPoint"/>
                        <Array as="points">
                            <mxPoint x="850" y="270"/>
                        </Array>
                    </mxGeometry>
                </mxCell>
                <mxCell id="43" value="" style="rounded=0;whiteSpace=wrap;html=1;" vertex="1" parent="1">
                    <mxGeometry x="800" y="420" width="120" height="60" as="geometry"/>
                </mxCell>
                <mxCell id="44" value="条件不成立" style="text;html=1;align=center;verticalAlign=middle;resizable=0;points=[];autosize=1;strokeColor=#A50040;fillColor=#d80073;fontColor=#ffffff;" vertex="1" parent="1">
                    <mxGeometry x="760" y="390" width="80" height="20" as="geometry"/>
                </mxCell>
                <mxCell id="45" value="" style="endArrow=none;dashed=1;html=1;dashPattern=1 3;strokeWidth=2;" edge="1" parent="1">
                    <mxGeometry width="50" height="50" relative="1" as="geometry">
                        <mxPoint x="720" y="10" as="sourcePoint"/>
                        <mxPoint x="730" y="520" as="targetPoint"/>
                    </mxGeometry>
                </mxCell>
                <mxCell id="46" value="" style="endArrow=none;dashed=1;html=1;dashPattern=1 3;strokeWidth=2;" edge="1" parent="1">
                    <mxGeometry width="50" height="50" relative="1" as="geometry">
                        <mxPoint x="730" y="10" as="sourcePoint"/>
                        <mxPoint x="1270" y="10" as="targetPoint"/>
                    </mxGeometry>
                </mxCell>
                <mxCell id="47" value="" style="endArrow=none;dashed=1;html=1;dashPattern=1 3;strokeWidth=2;" edge="1" parent="1">
                    <mxGeometry width="50" height="50" relative="1" as="geometry">
                        <mxPoint x="730" y="520" as="sourcePoint"/>
                        <mxPoint x="1280" y="10" as="targetPoint"/>
                        <Array as="points">
                            <mxPoint x="1280" y="520"/>
                        </Array>
                    </mxGeometry>
                </mxCell>
                <mxCell id="48" value="循环" style="text;html=1;align=center;verticalAlign=middle;resizable=0;points=[];autosize=1;strokeColor=#A50040;fillColor=#d80073;fontColor=#ffffff;" vertex="1" parent="1">
                    <mxGeometry x="970" y="480" width="40" height="20" as="geometry"/>
                </mxCell>
            </root>
        </mxGraphModel>
    </diagram>
    <diagram id="f8W_BiHCu988fT1ABwH2" name="while">
        <mxGraphModel grid="1" gridSize="10" guides="1" tooltips="1" connect="1" arrows="1" page="1" fold="1" pageScale="1" pageWidth="3300" pageHeight="4681" math="0" shadow="0">
            <root>
                <mxCell id="bsYytqnbIdEDJtAuKSIa-0"/>
                <mxCell id="bsYytqnbIdEDJtAuKSIa-1" parent="bsYytqnbIdEDJtAuKSIa-0"/>
                <mxCell id="bsYytqnbIdEDJtAuKSIa-2" value="" style="endArrow=classic;html=1;" parent="bsYytqnbIdEDJtAuKSIa-1" edge="1">
                    <mxGeometry width="50" height="50" relative="1" as="geometry">
                        <mxPoint x="520" y="130" as="sourcePoint"/>
                        <mxPoint x="520" y="210" as="targetPoint"/>
                    </mxGeometry>
                </mxCell>
                <mxCell id="bsYytqnbIdEDJtAuKSIa-10" style="edgeStyle=none;html=1;exitX=0.5;exitY=1;exitDx=0;exitDy=0;entryX=0.5;entryY=1;entryDx=0;entryDy=0;" parent="bsYytqnbIdEDJtAuKSIa-1" source="bsYytqnbIdEDJtAuKSIa-3" target="bsYytqnbIdEDJtAuKSIa-4" edge="1">
                    <mxGeometry relative="1" as="geometry"/>
                </mxCell>
                <mxCell id="bsYytqnbIdEDJtAuKSIa-3" value="" style="rhombus;whiteSpace=wrap;html=1;" parent="bsYytqnbIdEDJtAuKSIa-1" vertex="1">
                    <mxGeometry x="440" y="210" width="160" height="50" as="geometry"/>
                </mxCell>
                <mxCell id="bsYytqnbIdEDJtAuKSIa-4" value="条件" style="text;html=1;strokeColor=none;fillColor=none;align=center;verticalAlign=middle;whiteSpace=wrap;rounded=0;" parent="bsYytqnbIdEDJtAuKSIa-1" vertex="1">
                    <mxGeometry x="490" y="220" width="60" height="30" as="geometry"/>
                </mxCell>
                <mxCell id="bsYytqnbIdEDJtAuKSIa-6" value="" style="endArrow=none;html=1;exitX=1;exitY=0.5;exitDx=0;exitDy=0;" parent="bsYytqnbIdEDJtAuKSIa-1" source="bsYytqnbIdEDJtAuKSIa-3" edge="1">
                    <mxGeometry width="50" height="50" relative="1" as="geometry">
                        <mxPoint x="480" y="320" as="sourcePoint"/>
                        <mxPoint x="720" y="235" as="targetPoint"/>
                    </mxGeometry>
                </mxCell>
                <mxCell id="bsYytqnbIdEDJtAuKSIa-7" value="" style="endArrow=none;html=1;" parent="bsYytqnbIdEDJtAuKSIa-1" edge="1">
                    <mxGeometry width="50" height="50" relative="1" as="geometry">
                        <mxPoint x="580" y="400" as="sourcePoint"/>
                        <mxPoint x="720" y="240" as="targetPoint"/>
                        <Array as="points">
                            <mxPoint x="720" y="400"/>
                        </Array>
                    </mxGeometry>
                </mxCell>
                <mxCell id="bsYytqnbIdEDJtAuKSIa-8" value="" style="endArrow=classic;html=1;" parent="bsYytqnbIdEDJtAuKSIa-1" edge="1">
                    <mxGeometry width="50" height="50" relative="1" as="geometry">
                        <mxPoint x="580" y="400" as="sourcePoint"/>
                        <mxPoint x="580" y="520" as="targetPoint"/>
                    </mxGeometry>
                </mxCell>
                <mxCell id="bsYytqnbIdEDJtAuKSIa-9" value="" style="endArrow=classic;html=1;" parent="bsYytqnbIdEDJtAuKSIa-1" edge="1">
                    <mxGeometry width="50" height="50" relative="1" as="geometry">
                        <mxPoint x="520" y="270" as="sourcePoint"/>
                        <mxPoint x="519.5" y="320" as="targetPoint"/>
                        <Array as="points">
                            <mxPoint x="520" y="270"/>
                        </Array>
                    </mxGeometry>
                </mxCell>
                <mxCell id="bsYytqnbIdEDJtAuKSIa-11" value="每次循环执行的语句" style="rounded=0;whiteSpace=wrap;html=1;" parent="bsYytqnbIdEDJtAuKSIa-1" vertex="1">
                    <mxGeometry x="460" y="320" width="120" height="30" as="geometry"/>
                </mxCell>
                <mxCell id="bsYytqnbIdEDJtAuKSIa-12" value="继续后面的语句" style="text;html=1;align=center;verticalAlign=middle;resizable=0;points=[];autosize=1;strokeColor=none;fillColor=none;" parent="bsYytqnbIdEDJtAuKSIa-1" vertex="1">
                    <mxGeometry x="580" y="430" width="100" height="20" as="geometry"/>
                </mxCell>
                <mxCell id="bsYytqnbIdEDJtAuKSIa-13" value="真" style="text;html=1;align=center;verticalAlign=middle;resizable=0;points=[];autosize=1;strokeColor=none;fillColor=none;" parent="bsYytqnbIdEDJtAuKSIa-1" vertex="1">
                    <mxGeometry x="525" y="270" width="30" height="20" as="geometry"/>
                </mxCell>
                <mxCell id="bsYytqnbIdEDJtAuKSIa-14" value="假" style="text;html=1;align=center;verticalAlign=middle;resizable=0;points=[];autosize=1;strokeColor=none;fillColor=none;" parent="bsYytqnbIdEDJtAuKSIa-1" vertex="1">
                    <mxGeometry x="625" y="210" width="30" height="20" as="geometry"/>
                </mxCell>
                <mxCell id="bsYytqnbIdEDJtAuKSIa-15" value="" style="endArrow=none;html=1;fillColor=#d80073;strokeColor=#A50040;" parent="bsYytqnbIdEDJtAuKSIa-1" edge="1">
                    <mxGeometry width="50" height="50" relative="1" as="geometry">
                        <mxPoint x="360" y="234.5" as="sourcePoint"/>
                        <mxPoint x="440" y="234.5" as="targetPoint"/>
                    </mxGeometry>
                </mxCell>
                <mxCell id="bsYytqnbIdEDJtAuKSIa-16" value="" style="endArrow=none;html=1;fillColor=#d80073;strokeColor=#A50040;" parent="bsYytqnbIdEDJtAuKSIa-1" edge="1">
                    <mxGeometry width="50" height="50" relative="1" as="geometry">
                        <mxPoint x="360" y="240" as="sourcePoint"/>
                        <mxPoint x="360" y="150" as="targetPoint"/>
                    </mxGeometry>
                </mxCell>
                <mxCell id="bsYytqnbIdEDJtAuKSIa-17" value="" style="endArrow=classic;html=1;fillColor=#d80073;strokeColor=#A50040;" parent="bsYytqnbIdEDJtAuKSIa-1" edge="1">
                    <mxGeometry width="50" height="50" relative="1" as="geometry">
                        <mxPoint x="360" y="160" as="sourcePoint"/>
                        <mxPoint x="510" y="160" as="targetPoint"/>
                    </mxGeometry>
                </mxCell>
            </root>
        </mxGraphModel>
    </diagram>
    <diagram id="VNsa9T_sM2xQA7-rxfuJ" name="do..while">
        <mxGraphModel dx="990" dy="574" grid="0" gridSize="10" guides="1" tooltips="1" connect="1" arrows="1" fold="1" page="1" pageScale="1" pageWidth="3300" pageHeight="4681" math="0" shadow="0">
            <root>
                <mxCell id="dvsUAK_K8PUUGZhxdEqM-0"/>
                <mxCell id="dvsUAK_K8PUUGZhxdEqM-1" parent="dvsUAK_K8PUUGZhxdEqM-0"/>
                <mxCell id="j-Z21K890Fx5LNzGgX0K-2" value="do-while循环体" style="whiteSpace=wrap;html=1;" parent="dvsUAK_K8PUUGZhxdEqM-1" vertex="1">
                    <mxGeometry x="240" y="200" width="120" height="60" as="geometry"/>
                </mxCell>
                <mxCell id="j-Z21K890Fx5LNzGgX0K-3" value="条件表达式" style="rhombus;whiteSpace=wrap;html=1;" parent="dvsUAK_K8PUUGZhxdEqM-1" vertex="1">
                    <mxGeometry x="240" y="320" width="120" height="80" as="geometry"/>
                </mxCell>
                <mxCell id="j-Z21K890Fx5LNzGgX0K-4" value="结束" style="whiteSpace=wrap;html=1;strokeWidth=1;" parent="dvsUAK_K8PUUGZhxdEqM-1" vertex="1">
                    <mxGeometry x="440" y="340" width="150" height="60" as="geometry"/>
                </mxCell>
                <mxCell id="j-Z21K890Fx5LNzGgX0K-8" value="do-while" style="rounded=1;whiteSpace=wrap;html=1;" vertex="1" parent="dvsUAK_K8PUUGZhxdEqM-1">
                    <mxGeometry x="240" y="80" width="160" height="50" as="geometry"/>
                </mxCell>
                <mxCell id="j-Z21K890Fx5LNzGgX0K-9" value="" style="endArrow=classic;html=1;exitX=0.5;exitY=1;exitDx=0;exitDy=0;" edge="1" parent="dvsUAK_K8PUUGZhxdEqM-1" source="j-Z21K890Fx5LNzGgX0K-8">
                    <mxGeometry width="50" height="50" relative="1" as="geometry">
                        <mxPoint x="480" y="320" as="sourcePoint"/>
                        <mxPoint x="320" y="190" as="targetPoint"/>
                    </mxGeometry>
                </mxCell>
                <mxCell id="j-Z21K890Fx5LNzGgX0K-10" value="" style="endArrow=classic;html=1;exitX=0.5;exitY=1;exitDx=0;exitDy=0;" edge="1" parent="dvsUAK_K8PUUGZhxdEqM-1">
                    <mxGeometry width="50" height="50" relative="1" as="geometry">
                        <mxPoint x="299.5" y="260" as="sourcePoint"/>
                        <mxPoint x="299.5" y="320" as="targetPoint"/>
                    </mxGeometry>
                </mxCell>
                <mxCell id="j-Z21K890Fx5LNzGgX0K-11" value="" style="endArrow=classic;html=1;" edge="1" parent="dvsUAK_K8PUUGZhxdEqM-1">
                    <mxGeometry width="50" height="50" relative="1" as="geometry">
                        <mxPoint x="360" y="360" as="sourcePoint"/>
                        <mxPoint x="430" y="360" as="targetPoint"/>
                    </mxGeometry>
                </mxCell>
                <mxCell id="j-Z21K890Fx5LNzGgX0K-12" value="否" style="text;html=1;align=center;verticalAlign=middle;resizable=0;points=[];autosize=1;strokeColor=#A50040;fillColor=#d80073;fontColor=#ffffff;" vertex="1" parent="dvsUAK_K8PUUGZhxdEqM-1">
                    <mxGeometry x="375" y="330" width="30" height="20" as="geometry"/>
                </mxCell>
                <mxCell id="j-Z21K890Fx5LNzGgX0K-13" value="" style="endArrow=none;html=1;" edge="1" parent="dvsUAK_K8PUUGZhxdEqM-1">
                    <mxGeometry width="50" height="50" relative="1" as="geometry">
                        <mxPoint x="170" y="360" as="sourcePoint"/>
                        <mxPoint x="240" y="360" as="targetPoint"/>
                    </mxGeometry>
                </mxCell>
                <mxCell id="j-Z21K890Fx5LNzGgX0K-14" value="" style="endArrow=none;html=1;" edge="1" parent="dvsUAK_K8PUUGZhxdEqM-1">
                    <mxGeometry width="50" height="50" relative="1" as="geometry">
                        <mxPoint x="170" y="360" as="sourcePoint"/>
                        <mxPoint x="170" y="240" as="targetPoint"/>
                    </mxGeometry>
                </mxCell>
                <mxCell id="j-Z21K890Fx5LNzGgX0K-15" value="" style="endArrow=classic;html=1;" edge="1" parent="dvsUAK_K8PUUGZhxdEqM-1">
                    <mxGeometry width="50" height="50" relative="1" as="geometry">
                        <mxPoint x="170" y="240" as="sourcePoint"/>
                        <mxPoint x="230" y="240" as="targetPoint"/>
                    </mxGeometry>
                </mxCell>
                <mxCell id="j-Z21K890Fx5LNzGgX0K-16" value="是" style="text;html=1;align=center;verticalAlign=middle;resizable=0;points=[];autosize=1;strokeColor=#A50040;fillColor=#d80073;fontColor=#ffffff;" vertex="1" parent="dvsUAK_K8PUUGZhxdEqM-1">
                    <mxGeometry x="165" y="280" width="30" height="20" as="geometry"/>
                </mxCell>
            </root>
        </mxGraphModel>
    </diagram>
</mxfile>